<svg width="238" height="99" viewBox="0 0 238 99" fill="none" xmlns="http://www.w3.org/2000/svg">
<path opacity="0.3" d="M24.5742 77H16.1016V32.7734H1.05469V25.6016H39.5859V32.7734H24.5742V77ZM103.57 77V25.6016H112.008V69.8281H133.84V77H103.57ZM183.27 77H174.867V53.7969H151.172V77H142.734V25.6016H151.172V46.625H174.867V25.6016H183.27V77ZM228.727 77L223.699 62.7266H204.047L199.02 77H190.125L209.25 25.3906H218.602L237.691 77H228.727ZM221.52 55.4844L216.633 41.4219C216.445 40.8125 216.176 39.957 215.824 38.8555C215.473 37.7305 215.121 36.5938 214.77 35.4453C214.418 34.2734 214.125 33.2891 213.891 32.4922C213.656 33.4531 213.363 34.5312 213.012 35.7266C212.684 36.8984 212.355 38 212.027 39.0312C211.723 40.0625 211.488 40.8594 211.324 41.4219L206.402 55.4844H221.52Z" fill="#100E09"/>
<line x1="68.4615" y1="26.1923" x2="38.4615" y2="98.1923" stroke="#100E09"/>
<line x1="77.1856" y1="23.576" x2="96.1856" y2="95.576" stroke="#100E09" stroke-width="19"/>
<line x1="51" y1="67.5" x2="80" y2="67.5" stroke="#100E09"/>
</svg>
